<svg xmlns="http://www.w3.org/2000/svg" viewBox="0 0 333333 333333" shape-rendering="geometricPrecision" text-rendering="geometricPrecision" image-rendering="optimizeQuality" fill-rule="evenodd" clip-rule="evenodd"><path d="M206564 33459c-780-4257 2039-8342 6296-9122s8342 2039 9122 6296l21025 113638c780 4257-2039 8342-6296 9122s-8342-2039-9122-6297L206564 33458zM46991 100233c4235-2751 9898-1547 12649 2688s1547 9898-2688 12649c-20297 13145-32105 30264-36576 47681-3089 12031-2683 24268 836 35440 3481 11052 10056 21051 19347 28741 12756 10558 30710 16799 52959 15570 4212-231 7915 2424 9185 6244 6023 16290 17893 27860 32292 34579 9168 4278 19372 6614 29781 6978 10485 367 21153-1265 31168-4926 17496-6395 32969-19041 41859-38096 1583-3387 4981-5348 8494-5267 21467 253 37699-5759 48939-15430 9093-7823 15008-18144 17831-29502 2893-11639 2572-24358-866-36659-5069-18131-16924-35287-35265-46713-4294-2671-5610-8319-2939-12613 2672-4294 8319-5610 12613-2939 22447 13983 36980 35067 43221 57391 4280 15310 4655 31237 1009 45904-3715 14948-11576 28598-23707 39034-13366 11499-31800 18969-55406 19743-11381 20917-29394 34979-49549 42346-12201 4460-25200 6448-37977 6001-12852-449-25510-3361-36947-8698-16789-7834-30933-20845-39276-38921-24283 2-44305-7662-59102-19909-12066-9987-20614-23004-25153-37413-4501-14289-5013-29964-1051-45401 5554-21634 19881-42677 44316-58503zm66429-69507c729-4274 4786-7148 9061-6419 4274 729 7149 4786 6419 9061l-20024 115641c-729 4275-4786 7149-9061 6420s-7149-4786-6420-9061l20025-115641zm44963 27976c-68-4326 3384-7888 7709-7956 4326-67 7888 3384 7956 7709l2503 143174c68 4325-3384 7887-7709 7955-4326 68-7888-3384-7956-7709l-2503-143174z" fill-rule="nonzero"/></svg>