<svg xmlns="http://www.w3.org/2000/svg" viewBox="0 0 3333 3333" shape-rendering="geometricPrecision" text-rendering="geometricPrecision" image-rendering="optimizeQuality" fill-rule="evenodd" clip-rule="evenodd"><path d="M2352 2845c-450 230-902 237-1359-1l488-832c111 66 241 66 390 0l480 832zM1666 0c460 0 877 187 1179 488 302 302 488 718 488 1179 0 460-187 877-488 1179-302 302-718 488-1179 488-460 0-877-187-1179-488C185 2544-1 2128-1 1667c0-460 187-877 488-1179C789 186 1205 0 1666 0zm1088 579c-278-278-663-450-1088-450S857 301 578 579c-278 278-450 663-450 1088s172 809 450 1088c278 278 663 450 1088 450s809-172 1088-450c278-278 450-663 450-1088s-172-809-450-1088zm-409-98c424 274 656 663 679 1177l-964-7c2-129-63-242-195-338l480-832zm-677 941c145 0 262 117 262 262s-117 262-262 262-262-117-262-262 117-262 262-262zM313 1664c25-505 246-900 680-1176l476 838c-113 63-178 176-195 338H313z"/></svg>