<svg xmlns="http://www.w3.org/2000/svg" viewBox="0 0 333334 202842" shape-rendering="geometricPrecision" text-rendering="geometricPrecision" image-rendering="optimizeQuality" fill-rule="evenodd" clip-rule="evenodd"><path d="M77834 144814c-4357 0-7890-3533-7890-7890s3533-7890 7890-7890h139360c576 0 1137 62 1678 179 4994 749 9664 2163 13835 4418 4601 2486 8538 5932 11582 10544 10437 15811 8904 30487 1523 41348-4805 7070-12131 12354-20206 15116-8134 2781-17156 3057-25289 91-12305-4490-22298-15976-23751-36750-289-4341 2994-8094 7335-8383 4340-289 8094 2995 8383 7335 937 13401 6548 20506 13395 23004 4630 1689 9949 1470 14872-213 4982-1704 9430-4858 12254-9014 4036-5939 4642-14315-1646-23842-1543-2337-3554-4092-5911-5366-2458-1329-5336-2193-8504-2686H77834zM41802 73809c-4357 0-7890-3533-7890-7890s3533-7890 7890-7890h138910c3167-494 6045-1357 8504-2686 2357-1274 4368-3029 5911-5367 6288-9526 5682-17902 1646-23841-2824-4156-7272-7310-12254-9014-4923-1683-10242-1903-14872-213-6847 2498-12458 9602-13396 23004-289 4340-4043 7624-8383 7335s-7624-4043-7335-8383c1453-20776 11446-32261 23751-36750 8133-2967 17156-2692 25289 91 8074 2761 15401 8046 20206 15116 7381 10861 8914 25536-1523 41348-3044 4613-6982 8058-11582 10545-4172 2254-8841 3669-13835 4418-541 117-1102 179-1678 179H41802zM7890 109311c-4357 0-7890-3533-7890-7890s3533-7890 7890-7890h290456c3167-493 6045-1357 8504-2686 2358-1274 4368-3028 5911-5366 6288-9527 5682-17903 1646-23841-2824-4156-7272-7310-12254-9014-4923-1683-10241-1903-14872-213-6846 2498-12457 9602-13395 23004-289 4340-4043 7624-8383 7335s-7624-4043-7335-8383c1453-20776 11446-32261 23750-36750 8133-2967 17156-2691 25289 91 8075 2762 15401 8046 20206 15116 7381 10861 8913 25536-1523 41348-3044 4612-6982 8057-11582 10544-4171 2254-8841 3669-13835 4418-541 117-1102 179-1678 179H7890z" fill-rule="nonzero"/></svg>